HIERARCHY
ROOT Hips
{
  OFFSET -35.2597 29.1586 114.425
  CHANNELS 6 Xposition Yposition Zposition Zrotation Xrotation Yrotation
  JOINT LeftUpLeg
  {
    OFFSET 8.64259 1.95398 -2.38835
    CHANNELS 3 Zrotation Xrotation Yrotation
    JOINT LeftLeg
    {
      OFFSET 43.7702 0 0
      CHANNELS 3 Zrotation Xrotation Yrotation
      JOINT LeftFoot
      {
        OFFSET 40.6238 0 0
        CHANNELS 3 Zrotation Xrotation Yrotation
        JOINT LeftToeBase
        {
          OFFSET 12.7242 0 0
          CHANNELS 3 Zrotation Xrotation Yrotation
          End Site
          {
            OFFSET 0 0 0
          }
        }
      }
    }
  }
  JOINT RightUpLeg
  {
    OFFSET -8.2249 1.95398 -2.59336
    CHANNELS 3 Zrotation Xrotation Yrotation
    JOINT RightLeg
    {
      OFFSET 43.5653 0 0
      CHANNELS 3 Zrotation Xrotation Yrotation
      JOINT RightFoot
      {
        OFFSET 40.6238 0 0
        CHANNELS 3 Zrotation Xrotation Yrotation
        JOINT RightToeBase
        {
          OFFSET 12.7242 0 0
          CHANNELS 3 Zrotation Xrotation Yrotation
          End Site
          {
            OFFSET 0 0 0
          }
        }
      }
    }
  }
  JOINT Spine
  {
    OFFSET 0.165834 0.87714 6.61349
    CHANNELS 3 Zrotation Xrotation Yrotation
    JOINT Spine1
    {
      OFFSET 7.38963 1.71661e-005 0
      CHANNELS 3 Zrotation Xrotation Yrotation
      JOINT Spine2
      {
        OFFSET 11.9445 1.14441e-005 0
        CHANNELS 3 Zrotation Xrotation Yrotation
        JOINT Spine3
        {
          OFFSET 14.7254 4.19617e-005 0
          CHANNELS 3 Zrotation Xrotation Yrotation
          JOINT Spine4
          {
            OFFSET 10.9679 0 0
            CHANNELS 3 Zrotation Xrotation Yrotation
            JOINT RightShoulder
            {
              OFFSET 2.46616 -1.6653 3.69651
              CHANNELS 3 Zrotation Xrotation Yrotation
              JOINT RightArm
              {
                OFFSET 13.0012 0 0
                CHANNELS 3 Zrotation Xrotation Yrotation
                JOINT RightForeArm
                {
                  OFFSET 28.7848 1.62311e-005 0
                  CHANNELS 3 Zrotation Xrotation Yrotation
                  JOINT RightHand
                  {
                    OFFSET 26.5688 1.62095e-005 0
                    CHANNELS 3 Zrotation Xrotation Yrotation
                    End Site
                    {
                      OFFSET 0 0 0
                    }
                  }
                }
              }
            }
            JOINT LeftShoulder
            {
              OFFSET 2.38034 -1.29275 -3.7523
              CHANNELS 3 Zrotation Xrotation Yrotation
              JOINT LeftArm
              {
                OFFSET 16.3182 6.07031e-005 0
                CHANNELS 3 Zrotation Xrotation Yrotation
                JOINT LeftForeArm
                {
                  OFFSET 27.0901 0 0
                  CHANNELS 3 Zrotation Xrotation Yrotation
                  JOINT LeftHand
                  {
                    OFFSET 24.5451 1.51738e-005 0
                    CHANNELS 3 Zrotation Xrotation Yrotation
                    End Site
                    {
                      OFFSET 0 0 0
                    }
                  }
                }
              }
            }
            JOINT Neck
            {
              OFFSET 5.0226 -0.0266342 0
              CHANNELS 3 Zrotation Xrotation Yrotation
              JOINT Head
              {
                OFFSET 6.69364 2.86102e-005 0
                CHANNELS 3 Zrotation Xrotation Yrotation
                End Site
                {
                  OFFSET 0 0 0
                }
              }
            }
          }
        }
      }
    }
  }
}
MOTION
Frames:	6
Frame Time:	0.0416667
166.692 102.433 -173.296 97.4258 -43.4839 96.7839 -173.533 0.0705656 91.5304 -16.8326 15.6896 -0.223507 72.2944 8.36093 -0.46068 18.5267 -11.1525 9.05203 174.26 -1.48226 91.4339 -12.5773 3.72105 1.24426 67.0615 -4.96107 0.835592 23.3021 1.36029 2.82927 0.348997 7.6105 -89.3355 11.6461 1.00579 1.2197 -0.0250252 1.05847 1.17425 -22.5569 0.592752 1.46555 -2.54426 0.592746 1.46554 88.301 -35.0877 -108.072 46.98 7.07508 -0.883067 -5.51545 -45.0195 -5.5821 -20.1029 2.85633 -21.7718 -85.0149 -52.582 86.5456 -26.5413 -12.1827 -13.7648 3.212 32.9432 -4.27924 0.508179 -0.350317 -14.6747 1.40142 -10.6879 -11.3467 -2.75345 -8.73568 -6.78674 
165.829 102.082 -173.055 95.9996 -43.8289 97.7561 -172.159 4.06575 94.2258 -21.1098 16.8227 -0.829622 73.9084 9.03855 -0.955426 17.2708 -10.95 7.52005 173.275 3.56475 93.6243 -20.3391 1.12815 3.01407 67.3917 -5.4264 0.0961647 24.3815 0.905707 2.88626 0.385772 7.6827 -89.3026 11.5008 1.09352 1.27774 -0.170299 1.14869 1.22838 -22.702 0.659016 1.54727 -2.68938 0.659002 1.54726 88.1842 -34.5455 -108.488 47.3465 6.79624 -1.37456 -5.39879 -43.4263 -5.50933 -22.8576 3.30859 -21.947 -85.038 -52.8207 86.5414 -24.2654 -13.3325 -12.4167 3.20941 32.8872 -4.27653 0.0458436 -0.301748 -14.3382 5.42088 -10.6612 -13.0479 -2.9617 -7.91655 -8.32781 
165.029 102.229 -172.816 94.6717 -43.2168 99.2249 -171.321 6.58623 97.2629 -22.6774 18.8507 -0.672906 73.9586 9.3564 -0.773911 19.2366 -10.3711 8.59131 170.1 7.65438 91.2343 -20.9938 0.365671 5.88065 62.8818 -2.11975 -0.371785 27.6468 -1.12199 5.31607 0.293072 7.80069 -89.3493 11.266 0.886161 1.20714 -0.405168 0.938426 1.16697 -22.9367 0.482435 1.41762 -2.92406 0.482435 1.41762 87.029 -35.4874 -110.234 46.0993 7.21707 -1.60806 -5.25191 -41.297 -5.42175 -22.3656 3.24618 -22.0075 -85.3789 -51.9837 85.9336 -22.6868 -14.1218 -10.7261 3.1611 31.79 -4.22701 0.863937 -0.340865 -13.3363 8.60606 -11.2586 -14.6552 -3.14477 -7.72731 -9.38286 
164.524 102.526 -172.484 93.2393 -41.1649 100.212 -171.084 8.31825 99.3133 -22.932 20.6454 0.10871 73.8905 9.92861 -1.36363 18.849 -10.6711 8.65609 169.271 9.50381 85.823 -19.0771 5.29356 4.59832 60.5539 -0.0295712 0.19378 27.0886 -0.891687 5.22092 0.365769 7.80534 -89.5352 11.259 0.944285 0.832447 -0.411877 0.980008 0.790073 -22.9464 0.650455 1.07774 -2.93371 0.650453 1.07774 87.9701 -35.0122 -108.706 46.474 7.35242 -0.581061 -5.30093 -42.0242 -5.45113 -21.1088 3.00534 -21.7848 -84.9674 -50.6128 86.3684 -22.4701 -14.2208 -10.5927 3.10955 30.3698 -4.17826 0.98878 -0.372441 -14.0086 8.54551 -12.9079 -16.8838 -3.11831 -8.91894 -7.88037 
163.884 102.362 -171.612 92.6641 -39.0129 102.167 -170.398 11.06 102.339 -26.0773 23.7751 0.756583 75.251 11.3624 -1.9571 19.0362 -11.3926 9.92265 169.853 9.7227 79.7593 -19.8356 -1.01989 -0.169124 62.9766 -1.14641 -0.979441 23.627 0.731567 4.2674 0.534827 7.75974 -89.8882 11.3543 1.1164 0.110816 -0.316195 1.1202 0.0615719 -22.8547 1.03148 0.44126 -2.84207 1.03148 0.441248 88.8511 -34.0455 -107.444 44.8577 8.77073 2.66472 -4.96959 -36.8158 -5.26814 -20.8707 4.25348 -28.7308 -84.4459 -49.7689 87.0483 -20.8387 -14.9274 -10.5116 3.06664 29.5564 -4.12668 0.98366 -0.397461 -14.8188 4.61824 -13.602 -18.6324 -1.82124 -9.9974 -7.97673 
162.87 101.595 -169.819 92.4786 -37.19 104.436 -169.917 14.2447 106.157 -30.8061 27.0236 1.73846 77.3195 13.2308 -1.83746 20.9267 -10.164 10.0078 169.331 8.25644 75.2482 -20.9333 -8.54902 -2.92336 62.781 -0.629116 -0.401403 23.8855 0.518802 4.59637 0.573343 7.76307 -90.2675 11.3495 1.01622 -0.634237 -0.321234 0.987322 -0.678353 -22.8591 1.15984 -0.299469 -2.84646 1.15984 -0.299472 89.3056 -33.1825 -106.909 43.2622 9.32522 2.72611 -4.99555 -37.2482 -5.28147 -19.8808 2.41207 -19.4079 -83.7576 -48.7459 87.9786 -17.7124 -16.2497 -8.52434 3.05355 28.9373 -4.12442 1.14667 -0.42876 -15.4088 3.40536 -14.3071 -21.0603 -2.91048 -10.4313 -7.83483 
